<mxfile host="app.diagrams.net" modified="2023-05-22T16:34:56.604Z" agent="Mozilla/5.0 (Windows NT 10.0; Win64; x64) AppleWebKit/537.36 (KHTML, like Gecko) Chrome/113.0.0.0 Safari/537.36 Edg/113.0.1774.50" etag="rd40VNRRhNPQoEYrKIcp" version="21.3.2" type="github">
  <diagram name="第 1 页" id="XJIjctR-JpMJNmfGdmJn">
    <mxGraphModel dx="1379" dy="756" grid="1" gridSize="10" guides="1" tooltips="1" connect="1" arrows="1" fold="1" page="1" pageScale="1" pageWidth="827" pageHeight="1169" math="0" shadow="0">
      <root>
        <mxCell id="0" />
        <mxCell id="1" parent="0" />
        <mxCell id="QruSzuSG-7Z04U8nS0LY-8" style="edgeStyle=orthogonalEdgeStyle;rounded=0;orthogonalLoop=1;jettySize=auto;html=1;exitX=0.5;exitY=1;exitDx=0;exitDy=0;entryX=0.5;entryY=0;entryDx=0;entryDy=0;" edge="1" parent="1" source="QruSzuSG-7Z04U8nS0LY-7" target="QruSzuSG-7Z04U8nS0LY-1">
          <mxGeometry relative="1" as="geometry" />
        </mxCell>
        <mxCell id="QruSzuSG-7Z04U8nS0LY-7" value="直播间模块&lt;br&gt;&lt;br&gt;&lt;br&gt;&lt;br&gt;&lt;br&gt;&lt;br&gt;&lt;br&gt;" style="rounded=0;whiteSpace=wrap;html=1;" vertex="1" parent="1">
          <mxGeometry x="214" y="80" width="420" height="170" as="geometry" />
        </mxCell>
        <mxCell id="QruSzuSG-7Z04U8nS0LY-14" style="edgeStyle=orthogonalEdgeStyle;rounded=0;orthogonalLoop=1;jettySize=auto;html=1;exitX=0;exitY=0.75;exitDx=0;exitDy=0;entryX=1;entryY=0.75;entryDx=0;entryDy=0;" edge="1" parent="1" source="QruSzuSG-7Z04U8nS0LY-1" target="QruSzuSG-7Z04U8nS0LY-10">
          <mxGeometry relative="1" as="geometry" />
        </mxCell>
        <mxCell id="QruSzuSG-7Z04U8nS0LY-19" style="edgeStyle=orthogonalEdgeStyle;rounded=0;orthogonalLoop=1;jettySize=auto;html=1;exitX=1;exitY=0.25;exitDx=0;exitDy=0;entryX=0;entryY=0.25;entryDx=0;entryDy=0;" edge="1" parent="1" source="QruSzuSG-7Z04U8nS0LY-1" target="QruSzuSG-7Z04U8nS0LY-18">
          <mxGeometry relative="1" as="geometry" />
        </mxCell>
        <mxCell id="QruSzuSG-7Z04U8nS0LY-25" style="edgeStyle=orthogonalEdgeStyle;rounded=0;orthogonalLoop=1;jettySize=auto;html=1;exitX=0.5;exitY=1;exitDx=0;exitDy=0;" edge="1" parent="1" source="QruSzuSG-7Z04U8nS0LY-1" target="QruSzuSG-7Z04U8nS0LY-24">
          <mxGeometry relative="1" as="geometry" />
        </mxCell>
        <mxCell id="QruSzuSG-7Z04U8nS0LY-1" value="主程序" style="rounded=1;whiteSpace=wrap;html=1;" vertex="1" parent="1">
          <mxGeometry x="364" y="400" width="120" height="60" as="geometry" />
        </mxCell>
        <mxCell id="QruSzuSG-7Z04U8nS0LY-3" value="弹幕" style="shape=cylinder3;whiteSpace=wrap;html=1;boundedLbl=1;backgroundOutline=1;size=15;" vertex="1" parent="1">
          <mxGeometry x="294" y="150" width="60" height="80" as="geometry" />
        </mxCell>
        <mxCell id="QruSzuSG-7Z04U8nS0LY-4" value="礼物" style="shape=cylinder3;whiteSpace=wrap;html=1;boundedLbl=1;backgroundOutline=1;size=15;" vertex="1" parent="1">
          <mxGeometry x="394" y="150" width="60" height="80" as="geometry" />
        </mxCell>
        <mxCell id="QruSzuSG-7Z04U8nS0LY-5" value="舰长" style="shape=cylinder3;whiteSpace=wrap;html=1;boundedLbl=1;backgroundOutline=1;size=15;" vertex="1" parent="1">
          <mxGeometry x="494" y="150" width="60" height="80" as="geometry" />
        </mxCell>
        <mxCell id="QruSzuSG-7Z04U8nS0LY-9" value="列表发送&lt;br&gt;用户：弹幕&lt;br&gt;用户：礼物&lt;br&gt;用户：舰长" style="text;html=1;align=center;verticalAlign=middle;resizable=0;points=[];autosize=1;strokeColor=none;fillColor=none;" vertex="1" parent="1">
          <mxGeometry x="344" y="250" width="80" height="70" as="geometry" />
        </mxCell>
        <mxCell id="QruSzuSG-7Z04U8nS0LY-15" style="edgeStyle=orthogonalEdgeStyle;rounded=0;orthogonalLoop=1;jettySize=auto;html=1;exitX=1;exitY=0.25;exitDx=0;exitDy=0;entryX=0;entryY=0.25;entryDx=0;entryDy=0;" edge="1" parent="1" source="QruSzuSG-7Z04U8nS0LY-10" target="QruSzuSG-7Z04U8nS0LY-1">
          <mxGeometry relative="1" as="geometry" />
        </mxCell>
        <mxCell id="QruSzuSG-7Z04U8nS0LY-10" value="GPT类服务" style="rounded=0;whiteSpace=wrap;html=1;" vertex="1" parent="1">
          <mxGeometry x="104" y="400" width="120" height="60" as="geometry" />
        </mxCell>
        <mxCell id="QruSzuSG-7Z04U8nS0LY-12" value="逐条发送&lt;br&gt;用户：弹幕| 用户：礼物| 用户：舰长" style="text;html=1;align=center;verticalAlign=middle;resizable=0;points=[];autosize=1;strokeColor=none;fillColor=none;" vertex="1" parent="1">
          <mxGeometry x="184" y="460" width="220" height="40" as="geometry" />
        </mxCell>
        <mxCell id="QruSzuSG-7Z04U8nS0LY-17" value="GPT生成逐句回复" style="text;html=1;align=center;verticalAlign=middle;resizable=0;points=[];autosize=1;strokeColor=none;fillColor=none;" vertex="1" parent="1">
          <mxGeometry x="234" y="370" width="120" height="30" as="geometry" />
        </mxCell>
        <mxCell id="QruSzuSG-7Z04U8nS0LY-21" style="edgeStyle=orthogonalEdgeStyle;rounded=0;orthogonalLoop=1;jettySize=auto;html=1;exitX=0;exitY=0.75;exitDx=0;exitDy=0;entryX=1;entryY=0.75;entryDx=0;entryDy=0;" edge="1" parent="1" source="QruSzuSG-7Z04U8nS0LY-18" target="QruSzuSG-7Z04U8nS0LY-1">
          <mxGeometry relative="1" as="geometry" />
        </mxCell>
        <mxCell id="QruSzuSG-7Z04U8nS0LY-18" value="TTS文本转语音" style="rounded=0;whiteSpace=wrap;html=1;" vertex="1" parent="1">
          <mxGeometry x="604" y="400" width="120" height="60" as="geometry" />
        </mxCell>
        <mxCell id="QruSzuSG-7Z04U8nS0LY-20" value="GPT的回复字典{弹幕:回复队列}" style="text;html=1;align=center;verticalAlign=middle;resizable=0;points=[];autosize=1;strokeColor=none;fillColor=none;" vertex="1" parent="1">
          <mxGeometry x="444" y="370" width="190" height="30" as="geometry" />
        </mxCell>
        <mxCell id="QruSzuSG-7Z04U8nS0LY-22" value="语音文件播放队列" style="text;html=1;align=center;verticalAlign=middle;resizable=0;points=[];autosize=1;strokeColor=none;fillColor=none;" vertex="1" parent="1">
          <mxGeometry x="484" y="465" width="120" height="30" as="geometry" />
        </mxCell>
        <mxCell id="QruSzuSG-7Z04U8nS0LY-24" value="播放器" style="rounded=0;whiteSpace=wrap;html=1;" vertex="1" parent="1">
          <mxGeometry x="364" y="650" width="120" height="60" as="geometry" />
        </mxCell>
        <mxCell id="QruSzuSG-7Z04U8nS0LY-26" value="按照语音文件队列进行播放" style="text;html=1;align=center;verticalAlign=middle;resizable=0;points=[];autosize=1;strokeColor=none;fillColor=none;flipV=1;" vertex="1" parent="1">
          <mxGeometry x="424" y="570" width="170" height="30" as="geometry" />
        </mxCell>
      </root>
    </mxGraphModel>
  </diagram>
</mxfile>
